G04*
G04 #@! TF.GenerationSoftware,Altium Limited,Altium Designer,26.9.1 (10)*
G04*
G04 Layer_Color=128*
G04 Board_Origin=9950000|10100000*
%FSLAX44Y44*%
%MOMM*%
G71*
G04*
G04 #@! TF.SameCoordinates,95A59B46-6245-4F61-991B-DFF7F89169E8*
G04*
G04*
G04 #@! TF.FilePolarity,Positive*
G04*
G01*
G75*
%ADD46C,0.1270*%
D46*
X601560Y356870D02*
X612560D01*
X607060Y351370D02*
Y362370D01*
X351730Y185180D02*
X358730D01*
X355230Y181680D02*
Y188680D01*
X529570Y173990D02*
X539770D01*
X534670Y168890D02*
Y179090D01*
X629900Y76200D02*
X640100D01*
X635000Y71100D02*
Y81300D01*
X42760Y387350D02*
X53760D01*
X48260Y381850D02*
Y392850D01*
X68160Y279400D02*
X79160D01*
X73660Y273900D02*
Y284900D01*
X94830Y193040D02*
X105830D01*
X100330Y187540D02*
Y198540D01*
X626960Y356870D02*
X637960D01*
X632460Y351370D02*
Y362370D01*
X528300Y228600D02*
X538500D01*
X533400Y223500D02*
Y233700D01*
X93560Y387350D02*
X104560D01*
X99060Y381850D02*
Y392850D01*
X652360Y356870D02*
X663360D01*
X657860Y351370D02*
Y362370D01*
X553700Y228600D02*
X563900D01*
X558800Y223500D02*
Y233700D01*
X118960Y387350D02*
X129960D01*
X124460Y381850D02*
Y392850D01*
X604500Y76200D02*
X614700D01*
X609600Y71100D02*
Y81300D01*
X576160Y356870D02*
X587160D01*
X581660Y351370D02*
Y362370D01*
X68160Y387350D02*
X79160D01*
X73660Y381850D02*
Y392850D01*
X69430Y193040D02*
X80430D01*
X74930Y187540D02*
Y198540D01*
X351730Y165180D02*
X358730D01*
X355230Y161680D02*
Y168680D01*
X655300Y228600D02*
X665500D01*
X660400Y223500D02*
Y233700D01*
X529570Y135890D02*
X539770D01*
X534670Y130790D02*
Y140990D01*
X655300Y76200D02*
X665500D01*
X660400Y71100D02*
Y81300D01*
X579100Y76200D02*
X589300D01*
X584200Y71100D02*
Y81300D01*
X553700Y76200D02*
X563900D01*
X558800Y71100D02*
Y81300D01*
X528300Y76200D02*
X538500D01*
X533400Y71100D02*
Y81300D01*
X502900Y76200D02*
X513100D01*
X508000Y71100D02*
Y81300D01*
X629900Y228600D02*
X640100D01*
X635000Y223500D02*
Y233700D01*
X604500Y228600D02*
X614700D01*
X609600Y223500D02*
Y233700D01*
X579100Y228600D02*
X589300D01*
X584200Y223500D02*
Y233700D01*
X502900Y228600D02*
X513100D01*
X508000Y223500D02*
Y233700D01*
X24640Y461010D02*
X56640D01*
X40640Y445010D02*
Y477010D01*
X644400Y461010D02*
X676400D01*
X660400Y445010D02*
Y477010D01*
X644400Y40640D02*
X676400D01*
X660400Y24640D02*
Y56640D01*
X24640Y40640D02*
X56640D01*
X40640Y24640D02*
Y56640D01*
X42760Y279400D02*
X53760D01*
X48260Y273900D02*
Y284900D01*
X93560Y279400D02*
X104560D01*
X99060Y273900D02*
Y284900D01*
X118960Y279400D02*
X129960D01*
X124460Y273900D02*
Y284900D01*
X44030Y193040D02*
X55030D01*
X49530Y187540D02*
Y198540D01*
X443484Y365760D02*
X450596D01*
X447040Y362204D02*
Y369316D01*
X442214Y419100D02*
X449326D01*
X445770Y415544D02*
Y422656D01*
X268224Y402590D02*
X275336D01*
X271780Y399034D02*
Y406146D01*
X612394Y389890D02*
X619506D01*
X615950Y386334D02*
Y393446D01*
X585724Y152400D02*
X592836D01*
X589280Y148844D02*
Y155956D01*
X209804Y287020D02*
X216916D01*
X213360Y283464D02*
Y290576D01*
X62484Y332740D02*
X69596D01*
X66040Y329184D02*
Y336296D01*
X306324Y105410D02*
X313436D01*
X309880Y101854D02*
Y108966D01*
X263144Y38100D02*
X270256D01*
X266700Y34544D02*
Y41656D01*
X94234Y154940D02*
X101346D01*
X97790Y151384D02*
Y158496D01*
X296950Y49530D02*
X299950D01*
X298450Y48030D02*
Y51030D01*
X557784Y379730D02*
X564896D01*
X561340Y376174D02*
Y383286D01*
X603504Y17780D02*
X610616D01*
X607060Y14224D02*
Y21336D01*
X542544Y273050D02*
X549656D01*
X546100Y269494D02*
Y276606D01*
X82804Y354330D02*
X89916D01*
X86360Y350774D02*
Y357886D01*
X272034Y160020D02*
X279146D01*
X275590Y156464D02*
Y163576D01*
X282194Y38100D02*
X289306D01*
X285750Y34544D02*
Y41656D01*
X72644Y165100D02*
X79756D01*
X76200Y161544D02*
Y168656D01*
X298728Y155702D02*
X301728D01*
X300228Y154202D02*
Y157202D01*
M02*
