G04*
G04 #@! TF.GenerationSoftware,Altium Limited,Altium Designer,26.9.1 (10)*
G04*
G04 Layer_Color=2752767*
G04 Board_Origin=9950000|10100000*
%FSLAX44Y44*%
%MOMM*%
G71*
G04*
G04 #@! TF.SameCoordinates,95A59B46-6245-4F61-991B-DFF7F89169E8*
G04*
G04*
G04 #@! TF.FilePolarity,Positive*
G04*
G01*
G75*
%ADD46C,0.1270*%
%ADD47C,0.1693*%
D46*
X607060Y351790D02*
X601980Y361950D01*
X612140D01*
X607060Y351790D01*
X529590Y168910D02*
Y179070D01*
X539750D01*
Y168910D01*
X529590D01*
X629920Y71120D02*
Y81280D01*
X640080D01*
Y71120D01*
X629920D01*
X48260Y382270D02*
X43180Y392430D01*
X53340D01*
X48260Y382270D01*
X73660Y274320D02*
X68580Y284480D01*
X78740D01*
X73660Y274320D01*
X100330Y187960D02*
X95250Y198120D01*
X105410D01*
X100330Y187960D01*
X632460Y351790D02*
X627380Y361950D01*
X637540D01*
X632460Y351790D01*
X528320Y223520D02*
Y233680D01*
X538480D01*
Y223520D01*
X528320D01*
X99060Y382270D02*
X93980Y392430D01*
X104140D01*
X99060Y382270D01*
X657860Y351790D02*
X652780Y361950D01*
X662940D01*
X657860Y351790D01*
X553720Y223520D02*
Y233680D01*
X563880D01*
Y223520D01*
X553720D01*
X124460Y382270D02*
X119380Y392430D01*
X129540D01*
X124460Y382270D01*
X604520Y71120D02*
Y81280D01*
X614680D01*
Y71120D01*
X604520D01*
X581660Y351790D02*
X576580Y361950D01*
X586740D01*
X581660Y351790D01*
X73660Y382270D02*
X68580Y392430D01*
X78740D01*
X73660Y382270D01*
X74930Y187960D02*
X69850Y198120D01*
X80010D01*
X74930Y187960D01*
X655320Y223520D02*
Y233680D01*
X665480D01*
Y223520D01*
X655320D01*
X529590Y130810D02*
Y140970D01*
X539750D01*
Y130810D01*
X529590D01*
X655320Y71120D02*
Y81280D01*
X665480D01*
Y71120D01*
X655320D01*
X579120D02*
Y81280D01*
X589280D01*
Y71120D01*
X579120D01*
X553720D02*
Y81280D01*
X563880D01*
Y71120D01*
X553720D01*
X528320D02*
Y81280D01*
X538480D01*
Y71120D01*
X528320D01*
X502920D02*
Y81280D01*
X513080D01*
Y71120D01*
X502920D01*
X629920Y223520D02*
Y233680D01*
X640080D01*
Y223520D01*
X629920D01*
X604520D02*
Y233680D01*
X614680D01*
Y223520D01*
X604520D01*
X579120D02*
Y233680D01*
X589280D01*
Y223520D01*
X579120D01*
X502920D02*
Y233680D01*
X513080D01*
Y223520D01*
X502920D01*
X40640Y455930D02*
X43180Y458470D01*
X45720D01*
X43180Y461010D01*
X45720Y463550D01*
X43180D01*
X40640Y466090D01*
X38100Y463550D01*
X35560D01*
X38100Y461010D01*
X35560Y458470D01*
X38100D01*
X40640Y455930D01*
X660400D02*
X662940Y458470D01*
X665480D01*
X662940Y461010D01*
X665480Y463550D01*
X662940D01*
X660400Y466090D01*
X657860Y463550D01*
X655320D01*
X657860Y461010D01*
X655320Y458470D01*
X657860D01*
X660400Y455930D01*
Y35560D02*
X662940Y38100D01*
X665480D01*
X662940Y40640D01*
X665480Y43180D01*
X662940D01*
X660400Y45720D01*
X657860Y43180D01*
X655320D01*
X657860Y40640D01*
X655320Y38100D01*
X657860D01*
X660400Y35560D01*
X40640D02*
X43180Y38100D01*
X45720D01*
X43180Y40640D01*
X45720Y43180D01*
X43180D01*
X40640Y45720D01*
X38100Y43180D01*
X35560D01*
X38100Y40640D01*
X35560Y38100D01*
X38100D01*
X40640Y35560D01*
X48260Y274320D02*
X43180Y284480D01*
X53340D01*
X48260Y274320D01*
X99060D02*
X93980Y284480D01*
X104140D01*
X99060Y274320D01*
X124460D02*
X119380Y284480D01*
X129540D01*
X124460Y274320D01*
X49530Y187960D02*
X44450Y198120D01*
X54610D01*
X49530Y187960D01*
X444500Y363220D02*
Y360680D01*
X449580D01*
Y363220D01*
X452120D01*
Y368300D01*
X449580D01*
Y370840D01*
X444500D01*
Y368300D01*
X441960D01*
Y363220D01*
X444500D01*
X443230Y416560D02*
Y414020D01*
X448310D01*
Y416560D01*
X450850D01*
Y421640D01*
X448310D01*
Y424180D01*
X443230D01*
Y421640D01*
X440690D01*
Y416560D01*
X443230D01*
X269240Y400050D02*
Y397510D01*
X274320D01*
Y400050D01*
X276860D01*
Y405130D01*
X274320D01*
Y407670D01*
X269240D01*
Y405130D01*
X266700D01*
Y400050D01*
X269240D01*
X613410Y387350D02*
Y384810D01*
X618490D01*
Y387350D01*
X621030D01*
Y392430D01*
X618490D01*
Y394970D01*
X613410D01*
Y392430D01*
X610870D01*
Y387350D01*
X613410D01*
X586740Y149860D02*
Y147320D01*
X591820D01*
Y149860D01*
X594360D01*
Y154940D01*
X591820D01*
Y157480D01*
X586740D01*
Y154940D01*
X584200D01*
Y149860D01*
X586740D01*
X210820Y284480D02*
Y281940D01*
X215900D01*
Y284480D01*
X218440D01*
Y289560D01*
X215900D01*
Y292100D01*
X210820D01*
Y289560D01*
X208280D01*
Y284480D01*
X210820D01*
X63500Y330200D02*
Y327660D01*
X68580D01*
Y330200D01*
X71120D01*
Y335280D01*
X68580D01*
Y337820D01*
X63500D01*
Y335280D01*
X60960D01*
Y330200D01*
X63500D01*
X307340Y102870D02*
Y100330D01*
X312420D01*
Y102870D01*
X314960D01*
Y107950D01*
X312420D01*
Y110490D01*
X307340D01*
Y107950D01*
X304800D01*
Y102870D01*
X307340D01*
X264160Y35560D02*
Y33020D01*
X269240D01*
Y35560D01*
X271780D01*
Y40640D01*
X269240D01*
Y43180D01*
X264160D01*
Y40640D01*
X261620D01*
Y35560D01*
X264160D01*
X95250Y152400D02*
Y149860D01*
X100330D01*
Y152400D01*
X102870D01*
Y157480D01*
X100330D01*
Y160020D01*
X95250D01*
Y157480D01*
X92710D01*
Y152400D01*
X95250D01*
X293370Y44450D02*
X295910Y49530D01*
X293370Y54610D01*
X298450Y52070D01*
X303530Y54610D01*
X300990Y49530D01*
X303530Y44450D01*
X298450Y46990D01*
X293370Y44450D01*
X558800Y377190D02*
Y374650D01*
X563880D01*
Y377190D01*
X566420D01*
Y382270D01*
X563880D01*
Y384810D01*
X558800D01*
Y382270D01*
X556260D01*
Y377190D01*
X558800D01*
X604520Y15240D02*
Y12700D01*
X609600D01*
Y15240D01*
X612140D01*
Y20320D01*
X609600D01*
Y22860D01*
X604520D01*
Y20320D01*
X601980D01*
Y15240D01*
X604520D01*
X543560Y270510D02*
Y267970D01*
X548640D01*
Y270510D01*
X551180D01*
Y275590D01*
X548640D01*
Y278130D01*
X543560D01*
Y275590D01*
X541020D01*
Y270510D01*
X543560D01*
X83820Y351790D02*
Y349250D01*
X88900D01*
Y351790D01*
X91440D01*
Y356870D01*
X88900D01*
Y359410D01*
X83820D01*
Y356870D01*
X81280D01*
Y351790D01*
X83820D01*
X273050Y157480D02*
Y154940D01*
X278130D01*
Y157480D01*
X280670D01*
Y162560D01*
X278130D01*
Y165100D01*
X273050D01*
Y162560D01*
X270510D01*
Y157480D01*
X273050D01*
X283210Y35560D02*
Y33020D01*
X288290D01*
Y35560D01*
X290830D01*
Y40640D01*
X288290D01*
Y43180D01*
X283210D01*
Y40640D01*
X280670D01*
Y35560D01*
X283210D01*
X73660Y162560D02*
Y160020D01*
X78740D01*
Y162560D01*
X81280D01*
Y167640D01*
X78740D01*
Y170180D01*
X73660D01*
Y167640D01*
X71120D01*
Y162560D01*
X73660D01*
X295148Y150622D02*
X297688Y155702D01*
X295148Y160782D01*
X300228Y158242D01*
X305308Y160782D01*
X302768Y155702D01*
X305308Y150622D01*
X300228Y153162D01*
X295148Y150622D01*
D47*
X360310Y185180D02*
G03*
X360310Y185180I-5080J0D01*
G01*
Y165180D02*
G03*
X360310Y165180I-5080J0D01*
G01*
M02*
