G04*
G04 #@! TF.GenerationSoftware,Altium Limited,Altium Designer,26.9.1 (10)*
G04*
G04 Layer_Color=255*
G04 Board_Origin=9950000|10100000*
%FSLAX44Y44*%
%MOMM*%
G71*
G04*
G04 #@! TF.SameCoordinates,95A59B46-6245-4F61-991B-DFF7F89169E8*
G04*
G04*
G04 #@! TF.FilePolarity,Positive*
G04*
G01*
G75*
%ADD32C,1.6000*%
%ADD33C,1.2000*%
%ADD34C,1.5700*%
%ADD35C,1.5500*%
G04:AMPARAMS|DCode=36|XSize=1.6mm|YSize=1.6mm|CornerRadius=0.4mm|HoleSize=0mm|Usage=FLASHONLY|Rotation=0.000|XOffset=0mm|YOffset=0mm|HoleType=Round|Shape=RoundedRectangle|*
%AMROUNDEDRECTD36*
21,1,1.6000,0.8000,0,0,0.0*
21,1,0.8000,1.6000,0,0,0.0*
1,1,0.8000,0.4000,-0.4000*
1,1,0.8000,-0.4000,-0.4000*
1,1,0.8000,-0.4000,0.4000*
1,1,0.8000,0.4000,0.4000*
%
%ADD36ROUNDEDRECTD36*%
%ADD37R,1.2000X1.2000*%
%ADD38R,1.5500X1.5500*%
%ADD39C,1.5240*%
D32*
X607060Y356870D02*
D03*
X73660Y279400D02*
D03*
X100330Y193040D02*
D03*
X632460Y356870D02*
D03*
X99060Y387350D02*
D03*
X657860Y356870D02*
D03*
X124460Y387350D02*
D03*
X73660D02*
D03*
X74930Y193040D02*
D03*
X99060Y279400D02*
D03*
X124460D02*
D03*
D33*
X355230Y185180D02*
D03*
D34*
X534670Y173990D02*
D03*
Y135890D02*
D03*
D35*
X635000Y76200D02*
D03*
X533400Y228600D02*
D03*
X558800D02*
D03*
X609600Y76200D02*
D03*
X584200D02*
D03*
X558800D02*
D03*
X533400D02*
D03*
X508000D02*
D03*
X635000Y228600D02*
D03*
X609600D02*
D03*
X584200D02*
D03*
X508000D02*
D03*
D36*
X48260Y387350D02*
D03*
X581660Y356870D02*
D03*
X48260Y279400D02*
D03*
X49530Y193040D02*
D03*
D37*
X355230Y165180D02*
D03*
D38*
X660400Y228600D02*
D03*
Y76200D02*
D03*
D39*
X40640Y461010D02*
D03*
X660400D02*
D03*
Y40640D02*
D03*
X40640D02*
D03*
M02*
