G04*
G04 #@! TF.GenerationSoftware,Altium Limited,Altium Designer,26.9.1 (10)*
G04*
G04 Layer_Color=32768*
G04 Board_Origin=9950000|10100000*
%FSLAX44Y44*%
%MOMM*%
G71*
G04*
G04 #@! TF.SameCoordinates,95A59B46-6245-4F61-991B-DFF7F89169E8*
G04*
G04*
G04 #@! TF.FilePolarity,Positive*
G04*
G01*
G75*
%ADD12C,0.2000*%
%ADD43C,0.1000*%
%ADD44C,0.0500*%
D12*
X534670Y188440D02*
G03*
X534670Y159540I0J-14450D01*
G01*
D02*
G03*
X534670Y188440I0J14450D01*
G01*
Y150340D02*
G03*
X534670Y121440I0J-14450D01*
G01*
D02*
G03*
X534670Y150340I0J14450D01*
G01*
X469780Y382740D02*
Y409740D01*
X454780Y382740D02*
X469780D01*
X454780D02*
Y409740D01*
X469780D01*
X287360Y363560D02*
Y469560D01*
X393360D01*
Y363560D02*
Y469560D01*
X287360Y363560D02*
X393360D01*
X232380Y165520D02*
X260380D01*
Y154520D02*
Y165520D01*
X232380Y154520D02*
X260380D01*
X232380D02*
Y165520D01*
X352190Y83710D02*
Y111710D01*
X363190D01*
Y83710D02*
Y111710D01*
X352190Y83710D02*
X363190D01*
X324790Y84210D02*
Y111210D01*
X339790D01*
Y84210D02*
Y111210D01*
X324790Y84210D02*
X339790D01*
X391130Y83710D02*
Y111710D01*
X380130Y83710D02*
X391130D01*
X380130D02*
Y111710D01*
X391130D01*
X230380Y183890D02*
Y214890D01*
X262380D01*
Y183890D02*
Y214890D01*
X230380Y183890D02*
X262380D01*
X231490Y290950D02*
X258490D01*
X231490D02*
Y305950D01*
X258490D01*
Y290950D02*
Y305950D01*
X536360Y250160D02*
Y278160D01*
X525360Y250160D02*
X536360D01*
X525360D02*
Y278160D01*
X536360D01*
X175380Y20790D02*
Y47790D01*
X190380D01*
Y20790D02*
Y47790D01*
X175380Y20790D02*
X190380D01*
X566840Y250160D02*
Y278160D01*
X555840Y250160D02*
X566840D01*
X555840D02*
Y278160D01*
X566840D01*
X44920Y346830D02*
X71920D01*
X44920D02*
Y361830D01*
X71920D01*
Y346830D02*
Y361830D01*
X130470Y22750D02*
Y40750D01*
Y22750D02*
X151470D01*
Y40750D01*
X130470D02*
X151470D01*
X43150Y130390D02*
Y141390D01*
Y130390D02*
X71150D01*
Y141390D01*
X43150D02*
X71150D01*
X575660Y382390D02*
Y397390D01*
Y382390D02*
X602660D01*
Y397390D01*
X575660D02*
X602660D01*
D43*
X420450Y396240D02*
X430450D01*
X425450Y391240D02*
Y401240D01*
X379730Y170180D02*
Y180180D01*
X374730Y175180D02*
X384730D01*
X240110Y261620D02*
X250110D01*
X245110Y256620D02*
Y266620D01*
X617220Y35640D02*
Y45640D01*
X612220Y40640D02*
X622220D01*
D44*
X437950Y374740D02*
Y417740D01*
X412950Y374740D02*
Y417740D01*
X437950D01*
X412950Y374740D02*
X437950D01*
X340730Y144680D02*
X418730D01*
Y205680D01*
X340730D02*
X418730D01*
X340730Y144680D02*
Y205680D01*
X565460Y372320D02*
X674060D01*
Y341420D02*
Y372320D01*
X565460Y341420D02*
X674060D01*
X565460D02*
Y372320D01*
X217110Y246620D02*
Y276620D01*
X273110Y246620D02*
Y276620D01*
X217110D02*
X273110D01*
X217110Y246620D02*
X273110D01*
X679150Y61900D02*
Y90500D01*
X489250Y61900D02*
Y90500D01*
Y61900D02*
X679150D01*
X489250Y90500D02*
X679150D01*
Y214300D02*
Y242900D01*
X489250Y214300D02*
Y242900D01*
Y214300D02*
X679150D01*
X489250Y242900D02*
X679150D01*
X595720Y28140D02*
X638720D01*
X595720Y53140D02*
X638720D01*
Y28140D02*
Y53140D01*
X595720Y28140D02*
Y53140D01*
X32060Y402800D02*
X140660D01*
Y371900D02*
Y402800D01*
X32060Y371900D02*
X140660D01*
X32060D02*
Y402800D01*
Y263950D02*
Y294850D01*
Y263950D02*
X140660D01*
Y294850D01*
X32060D02*
X140660D01*
X33330Y208490D02*
X116530D01*
Y177590D02*
Y208490D01*
X33330Y177590D02*
X116530D01*
X33330D02*
Y208490D01*
M02*
