G04*
G04 #@! TF.GenerationSoftware,Altium Limited,Altium Designer,26.9.1 (10)*
G04*
G04 Layer_Color=32768*
G04 Board_Origin=9950000|10100000*
%FSLAX44Y44*%
%MOMM*%
G71*
G04*
G04 #@! TF.SameCoordinates,95A59B46-6245-4F61-991B-DFF7F89169E8*
G04*
G04*
G04 #@! TF.FilePolarity,Positive*
G04*
G01*
G75*
%ADD11C,0.1500*%
D11*
X573525Y365617D02*
X568527D01*
X571026D01*
Y353121D01*
X568527Y350622D01*
X566027D01*
X563528Y353121D01*
X578523Y348123D02*
X588520D01*
X593518Y365617D02*
Y350622D01*
X601016D01*
X603515Y353121D01*
Y355620D01*
X601016Y358120D01*
X593518D01*
X601016D01*
X603515Y360619D01*
Y363118D01*
X601016Y365617D01*
X593518D01*
X608514D02*
Y350622D01*
Y358120D01*
X618510D01*
Y365617D01*
Y350622D01*
X623509D02*
X628507D01*
X626008D01*
Y365617D01*
X623509Y363118D01*
X636005Y365617D02*
X646002D01*
Y363118D01*
X636005Y353121D01*
Y350622D01*
X660997Y365617D02*
X651000D01*
Y358120D01*
X655998Y360619D01*
X658497D01*
X660997Y358120D01*
Y353121D01*
X658497Y350622D01*
X653499D01*
X651000Y353121D01*
X665995Y363118D02*
X668494Y365617D01*
X673493D01*
X675992Y363118D01*
Y353121D01*
X673493Y350622D01*
X668494D01*
X665995Y353121D01*
Y363118D01*
X53871Y396097D02*
X48872D01*
X51371D01*
Y383601D01*
X48872Y381102D01*
X46373D01*
X43874Y383601D01*
X58869Y378603D02*
X68866D01*
X81362Y396097D02*
X76363D01*
X73864Y393598D01*
Y383601D01*
X76363Y381102D01*
X81362D01*
X83861Y383601D01*
Y393598D01*
X81362Y396097D01*
X88859D02*
Y381102D01*
X98856D01*
X113851Y396097D02*
X103854D01*
Y381102D01*
X113851D01*
X103854Y388600D02*
X108853D01*
X118849Y396097D02*
Y381102D01*
X126347D01*
X128846Y383601D01*
Y393598D01*
X126347Y396097D01*
X118849D01*
X46373Y288147D02*
X41375D01*
X43874D01*
Y275651D01*
X41375Y273152D01*
X38875D01*
X36376Y275651D01*
X51371Y270653D02*
X61368D01*
X66367Y273152D02*
Y288147D01*
X73864D01*
X76363Y285648D01*
Y280650D01*
X73864Y278150D01*
X66367D01*
X71365D02*
X76363Y273152D01*
X81362D02*
Y283149D01*
X86360Y288147D01*
X91358Y283149D01*
Y273152D01*
Y280650D01*
X81362D01*
X96357Y288147D02*
Y273152D01*
X103854D01*
X106354Y275651D01*
Y285648D01*
X103854Y288147D01*
X96357D01*
X111352Y273152D02*
Y283149D01*
X116350Y288147D01*
X121349Y283149D01*
Y273152D01*
Y280650D01*
X111352D01*
X126347Y273152D02*
Y288147D01*
X133845D01*
X136344Y285648D01*
Y280650D01*
X133845Y278150D01*
X126347D01*
X131346D02*
X136344Y273152D01*
X51188Y201787D02*
X46189D01*
X48689D01*
Y189291D01*
X46189Y186792D01*
X43690D01*
X41191Y189291D01*
X56186Y184293D02*
X66183D01*
X71181Y186792D02*
Y201787D01*
X78679D01*
X81178Y199288D01*
Y194290D01*
X78679Y191790D01*
X71181D01*
X86176Y201787D02*
X91175D01*
X88675D01*
Y186792D01*
X86176D01*
X91175D01*
X98672D02*
Y201787D01*
X106170D01*
X108669Y199288D01*
Y194290D01*
X106170Y191790D01*
X98672D01*
X103671D02*
X108669Y186792D01*
M02*
