G04*
G04 #@! TF.GenerationSoftware,Altium Limited,Altium Designer,26.9.1 (10)*
G04*
G04 Layer_Physical_Order=1*
G04 Layer_Color=255*
G04 Board_Origin=9950000|10100000*
%FSLAX44Y44*%
%MOMM*%
G71*
G04*
G04 #@! TF.SameCoordinates,95A59B46-6245-4F61-991B-DFF7F89169E8*
G04*
G04*
G04 #@! TF.FilePolarity,Positive*
G04*
G01*
G75*
%ADD10C,0.2500*%
%ADD21R,1.5000X1.4000*%
%ADD22R,0.9000X0.8000*%
%ADD23R,0.8000X0.9000*%
%ADD24R,0.8000X0.9000*%
%ADD25R,1.4000X1.5000*%
%ADD26R,1.6500X2.0000*%
%ADD27R,0.5000X0.3000*%
%ADD28R,0.9000X0.8000*%
%ADD29R,0.8000X1.5000*%
%ADD30R,1.5000X0.8000*%
%ADD31R,4.8000X4.8000*%
%ADD32C,1.6000*%
%ADD33C,1.2000*%
%ADD34C,1.5700*%
%ADD35C,1.5500*%
G04:AMPARAMS|DCode=36|XSize=1.6mm|YSize=1.6mm|CornerRadius=0.4mm|HoleSize=0mm|Usage=FLASHONLY|Rotation=0.000|XOffset=0mm|YOffset=0mm|HoleType=Round|Shape=RoundedRectangle|*
%AMROUNDEDRECTD36*
21,1,1.6000,0.8000,0,0,0.0*
21,1,0.8000,1.6000,0,0,0.0*
1,1,0.8000,0.4000,-0.4000*
1,1,0.8000,-0.4000,-0.4000*
1,1,0.8000,-0.4000,0.4000*
1,1,0.8000,0.4000,0.4000*
%
%ADD36ROUNDEDRECTD36*%
%ADD37R,1.2000X1.2000*%
%ADD38R,1.5500X1.5500*%
%ADD39C,1.5240*%
%ADD40C,1.2700*%
%ADD41C,0.6000*%
%ADD42C,0.5000*%
D10*
X340360Y416560D02*
X365360Y391560D01*
X315360D02*
X340360Y416560D01*
X365360Y391560D02*
X380360D01*
X420630D01*
X462280Y381000D02*
Y388740D01*
X300360Y391560D02*
X315360D01*
X420630D02*
X425450Y386740D01*
X425950D01*
X380360Y429060D02*
X462734D01*
X425950Y386740D02*
X446930Y365760D01*
X447040D02*
X462280Y381000D01*
X446930Y365760D02*
X447040D01*
X462734Y429060D02*
X523494Y368300D01*
X380360Y441560D02*
X640480D01*
X596660Y389890D02*
X615950D01*
X596660Y389390D02*
X607060Y378990D01*
Y356870D02*
Y378990D01*
X556260Y152400D02*
X589280D01*
X635000Y106680D01*
X534670Y173990D02*
X556260Y152400D01*
X635000Y76200D02*
Y106680D01*
X626720Y40640D02*
Y67920D01*
X635000Y76200D01*
X349448Y134715D02*
X357690Y126473D01*
X349448Y134715D02*
Y143765D01*
X357690Y106210D02*
Y126473D01*
X345947Y175898D02*
X355230Y185180D01*
X345947Y147265D02*
Y175898D01*
Y147265D02*
X349448Y143765D01*
X332290Y105210D02*
X356690D01*
X332090Y105410D02*
X332290Y105210D01*
X356690D02*
X357690Y106210D01*
X309880Y105410D02*
X332090D01*
X237490Y297950D02*
Y298450D01*
X234740Y295200D02*
X237490Y297950D01*
X226060Y287020D02*
X234240Y295200D01*
X234740D01*
X226060Y287020D02*
X226560D01*
X230360Y290820D01*
X213360Y287020D02*
X226060D01*
X50920Y354330D02*
X53670Y351580D01*
X48260Y356990D02*
X50920Y354330D01*
X53670Y345110D02*
Y351580D01*
X48260Y356990D02*
Y387350D01*
X73660Y279400D02*
Y325120D01*
X66040Y332740D02*
X73660Y325120D01*
X53670Y345110D02*
X66040Y332740D01*
X230360Y261620D02*
Y290820D01*
X182880Y41790D02*
X226180D01*
X239941Y23388D02*
X251988D01*
X238018Y25311D02*
X239941Y23388D01*
X251988D02*
X266700Y38100D01*
X226180Y41790D02*
X238018Y29952D01*
Y25311D02*
Y29952D01*
X99060Y191770D02*
X100330Y193040D01*
X99060Y156210D02*
Y191770D01*
X97790Y154940D02*
X99060Y156210D01*
X78740Y135890D02*
X97790Y154940D01*
X176840Y35750D02*
X182880Y41790D01*
X147970Y35750D02*
X176840D01*
X65650Y135890D02*
X78740D01*
X594360Y318770D02*
X632460Y356870D01*
X594360Y274066D02*
Y318770D01*
X584454Y264160D02*
X594360Y274066D01*
X553720Y264160D02*
X584454D01*
X523494Y257692D02*
Y368300D01*
X530860Y255660D02*
X545220D01*
X553720Y264160D01*
X533400Y228600D02*
Y253120D01*
X530860Y255660D02*
X533400Y253120D01*
X523494Y257692D02*
X530860Y255660D01*
X133970Y27750D02*
X142188D01*
X298450Y17780D02*
Y49530D01*
X175098Y21430D02*
X184705Y11824D01*
X175098Y21430D02*
Y21968D01*
X292494Y11824D02*
X298450Y17780D01*
X184705Y11824D02*
X292494D01*
X142188Y24890D02*
Y27750D01*
X145111Y21968D02*
X175098D01*
X142188Y24890D02*
X145111Y21968D01*
X657860Y356870D02*
Y424180D01*
Y320938D02*
Y356870D01*
X592582Y255660D02*
X657860Y320938D01*
X640480Y441560D02*
X657860Y424180D01*
X561340Y255660D02*
X592582D01*
X558800Y253120D02*
X561340Y255660D01*
X596138Y203454D02*
Y239522D01*
Y203454D02*
X679704Y119888D01*
X588264Y247396D02*
X596138Y239522D01*
X679704Y30226D02*
Y119888D01*
X657606Y8128D02*
X679704Y30226D01*
X558800Y228600D02*
Y253120D01*
Y228600D02*
X577596Y247396D01*
X588264D01*
X303530Y12700D02*
X308102Y8128D01*
X298122Y7292D02*
X303530Y12700D01*
X128188Y24890D02*
X145786Y7292D01*
X308102Y8128D02*
X657606D01*
X145786Y7292D02*
X298122D01*
X133970Y35250D02*
Y35750D01*
X131252Y32532D02*
X133970Y35250D01*
X128188Y30610D02*
X130111Y32532D01*
X131252D01*
X128188Y24890D02*
Y30610D01*
X301188Y89210D02*
X357690D01*
X236880Y157836D02*
Y174990D01*
Y189390D01*
Y174990D02*
X237880Y173990D01*
Y160020D02*
Y173990D01*
X558038Y202438D02*
X584200Y228600D01*
X334518Y202438D02*
X558038D01*
X275590Y143510D02*
X334518Y202438D01*
X251206Y143510D02*
X275590D01*
X236880Y157836D02*
X251206Y143510D01*
X300228Y90170D02*
X301188Y89210D01*
X300228Y90170D02*
Y155702D01*
X49530Y164710D02*
Y193040D01*
X48650Y163830D02*
X49530Y164710D01*
X48650Y135890D02*
Y163830D01*
X357690Y89210D02*
X385630D01*
X356690Y90210D02*
X357690Y89210D01*
X332290Y90210D02*
X356690D01*
D21*
X425450Y405740D02*
D03*
Y386740D02*
D03*
D22*
X462280Y403740D02*
D03*
Y388740D02*
D03*
X332290Y105210D02*
D03*
X182880Y41790D02*
D03*
Y26790D02*
D03*
X332290Y90210D02*
D03*
D23*
X596660Y389890D02*
D03*
X237490Y298450D02*
D03*
X50920Y354330D02*
D03*
X581660Y389890D02*
D03*
X65920Y354330D02*
D03*
X252490Y298450D02*
D03*
D24*
X357690Y106210D02*
D03*
X530860Y255660D02*
D03*
X561340D02*
D03*
Y272660D02*
D03*
X530860Y272660D02*
D03*
X255880Y189390D02*
D03*
X357690Y89210D02*
D03*
X385630Y106210D02*
D03*
Y89210D02*
D03*
X236880Y189390D02*
D03*
X246380Y209390D02*
D03*
D25*
X626720Y40640D02*
D03*
X607720D02*
D03*
D26*
X230360Y261620D02*
D03*
X259860D02*
D03*
D27*
X147970Y35750D02*
D03*
X133970Y27750D02*
D03*
Y35750D02*
D03*
X147970Y27750D02*
D03*
D28*
X65650Y135890D02*
D03*
X254880Y160020D02*
D03*
X237880D02*
D03*
X48650Y135890D02*
D03*
D29*
X315360Y376560D02*
D03*
X327860D02*
D03*
X340360D02*
D03*
X352860D02*
D03*
X365360D02*
D03*
Y456560D02*
D03*
X352860D02*
D03*
X340360D02*
D03*
X327860D02*
D03*
X315360D02*
D03*
D30*
X380360Y391560D02*
D03*
Y404060D02*
D03*
Y416560D02*
D03*
Y429060D02*
D03*
Y441560D02*
D03*
X300360D02*
D03*
Y429060D02*
D03*
Y416560D02*
D03*
Y404060D02*
D03*
Y391560D02*
D03*
D31*
X340360Y416560D02*
D03*
D32*
X607060Y356870D02*
D03*
X73660Y279400D02*
D03*
X100330Y193040D02*
D03*
X632460Y356870D02*
D03*
X99060Y387350D02*
D03*
X657860Y356870D02*
D03*
X124460Y387350D02*
D03*
X73660D02*
D03*
X74930Y193040D02*
D03*
X99060Y279400D02*
D03*
X124460D02*
D03*
D33*
X355230Y185180D02*
D03*
D34*
X534670Y173990D02*
D03*
Y135890D02*
D03*
D35*
X635000Y76200D02*
D03*
X533400Y228600D02*
D03*
X558800D02*
D03*
X609600Y76200D02*
D03*
X584200D02*
D03*
X558800D02*
D03*
X533400D02*
D03*
X508000D02*
D03*
X635000Y228600D02*
D03*
X609600D02*
D03*
X584200D02*
D03*
X508000D02*
D03*
D36*
X48260Y387350D02*
D03*
X581660Y356870D02*
D03*
X48260Y279400D02*
D03*
X49530Y193040D02*
D03*
D37*
X355230Y165180D02*
D03*
D38*
X660400Y228600D02*
D03*
Y76200D02*
D03*
D39*
X40640Y461010D02*
D03*
X660400D02*
D03*
Y40640D02*
D03*
X40640D02*
D03*
D40*
X447040Y365760D02*
D03*
X445770Y419100D02*
D03*
X271780Y402590D02*
D03*
X615950Y389890D02*
D03*
X589280Y152400D02*
D03*
X213360Y287020D02*
D03*
X66040Y332740D02*
D03*
X309880Y105410D02*
D03*
X266700Y38100D02*
D03*
X97790Y154940D02*
D03*
X561340Y379730D02*
D03*
X607060Y17780D02*
D03*
X546100Y273050D02*
D03*
X86360Y354330D02*
D03*
X275590Y160020D02*
D03*
X285750Y38100D02*
D03*
X76200Y165100D02*
D03*
D41*
X298450Y49530D02*
D03*
X300228Y155702D02*
D03*
D42*
X380360Y404060D02*
X381200Y404900D01*
X424610D01*
X461280Y404740D02*
X462280Y403740D01*
X443025Y404740D02*
X461280D01*
X445008Y418338D02*
X445770Y419100D01*
X445008Y409956D02*
Y418338D01*
X443025Y404740D02*
X444297Y406012D01*
Y417627D02*
X445770Y419100D01*
X444297Y406012D02*
Y417627D01*
X299625Y403325D02*
X300360Y404060D01*
X272515Y403325D02*
X299625D01*
X271780Y402590D02*
X272515Y403325D01*
X425450Y405740D02*
X440792D01*
X424770Y404740D02*
X443025D01*
X424610Y404900D02*
X424770Y404740D01*
X440792Y405740D02*
X445008Y409956D01*
X581660Y378460D02*
Y389890D01*
X562610Y378460D02*
X581660D01*
Y356870D02*
Y378460D01*
X561340Y379730D02*
X562610Y378460D01*
X608660Y75260D02*
X609600Y76200D01*
X608660Y41580D02*
Y75260D01*
X607720Y40640D02*
X608660Y41580D01*
X607390Y40310D02*
X607720Y40640D01*
X607390Y18110D02*
Y40310D01*
X607060Y17780D02*
X607390Y18110D01*
X546100Y273050D02*
X546295Y272855D01*
X545905D02*
X546100Y273050D01*
X546295Y272855D02*
X561145D01*
X561340Y272660D01*
X531055Y272855D02*
X545905D01*
X530860Y272660D02*
X531055Y272855D01*
X73660Y362570D02*
Y387350D01*
X65920Y354830D02*
X73660Y362570D01*
X74930Y193040D02*
X75565Y192405D01*
X255380Y188890D02*
X255880Y189390D01*
X65920Y354330D02*
X86360D01*
X254880Y160020D02*
X275590D01*
X255380Y160520D02*
Y188890D01*
X254880Y160020D02*
X255380Y160520D01*
X265256Y17606D02*
X285750Y38100D01*
X232236Y22915D02*
X237545Y17606D01*
X265256D01*
X147970Y27750D02*
X181920D01*
X75565Y165735D02*
X76200Y165100D01*
X75565Y165735D02*
Y192405D01*
X182880Y26790D02*
X232236D01*
Y22915D02*
Y26790D01*
X181920Y27750D02*
X182880Y26790D01*
X252490Y255524D02*
Y270740D01*
X385630Y106210D02*
X409956D01*
X457492Y58674D01*
X535940D01*
X545846Y68580D01*
Y124714D01*
X534670Y135890D02*
X545846Y124714D01*
X243868Y246902D02*
X252490Y255524D01*
X80758Y246902D02*
X243868D01*
X48260Y279400D02*
X80758Y246902D01*
X259860Y261620D02*
Y263370D01*
Y259870D02*
Y261620D01*
X252490Y270740D02*
X259860Y263370D01*
X252490Y270740D02*
Y298450D01*
X246380Y246390D02*
X259860Y259870D01*
X246380Y209390D02*
Y246390D01*
X385630Y106210D02*
Y106710D01*
X355230Y137110D02*
X385630Y106710D01*
X355230Y137110D02*
Y165180D01*
M02*
