G04*
G04 #@! TF.GenerationSoftware,Altium Limited,Altium Designer,26.9.1 (10)*
G04*
G04 Layer_Color=0*
G04 Board_Origin=9950000|10100000*
%FSLAX44Y44*%
%MOMM*%
G71*
G04*
G04 #@! TF.SameCoordinates,95A59B46-6245-4F61-991B-DFF7F89169E8*
G04*
G04*
G04 #@! TF.FilePolarity,Positive*
G04*
G01*
G75*
%ADD43C,0.1000*%
%ADD44C,0.0500*%
D43*
X462280Y391240D02*
Y401240D01*
X457280Y396240D02*
X467280D01*
X340360Y411560D02*
Y421560D01*
X335360Y416560D02*
X345360D01*
X241380Y160020D02*
X251380D01*
X246380Y155020D02*
Y165020D01*
X357690Y92711D02*
Y102711D01*
X352690Y97710D02*
X362690D01*
X332290Y92711D02*
Y102711D01*
X327290Y97710D02*
X337290D01*
X385630Y92711D02*
Y102711D01*
X380630Y97710D02*
X390630D01*
X246380Y194390D02*
Y204390D01*
X241380Y199390D02*
X251380D01*
X239990Y298450D02*
X249990D01*
X244990Y293450D02*
Y303450D01*
X530860Y259160D02*
Y269160D01*
X525860Y264160D02*
X535860D01*
X182880Y29290D02*
Y39290D01*
X177880Y34290D02*
X187880D01*
X534670Y168990D02*
Y178990D01*
X529670Y173990D02*
X539670D01*
X534670Y130890D02*
Y140890D01*
X529670Y135890D02*
X539670D01*
X561340Y259160D02*
Y269160D01*
X556340Y264160D02*
X566340D01*
X53420Y354330D02*
X63420D01*
X58420Y349330D02*
Y359330D01*
X140970Y26750D02*
Y36750D01*
X135970Y31750D02*
X145970D01*
X57150Y130890D02*
Y140890D01*
X52150Y135890D02*
X62150D01*
X589160Y384890D02*
Y394890D01*
X584160Y389890D02*
X594160D01*
D44*
X614760Y356870D02*
X624760D01*
X619760Y351870D02*
Y361870D01*
X81360Y387350D02*
X91360D01*
X86360Y382350D02*
Y392350D01*
Y274400D02*
Y284400D01*
X81360Y279400D02*
X91360D01*
X69930Y193040D02*
X79930D01*
X74930Y188040D02*
Y198040D01*
M02*
