G04*
G04 #@! TF.GenerationSoftware,Altium Limited,Altium Designer,26.9.1 (10)*
G04*
G04 Layer_Physical_Order=2*
G04 Layer_Color=36540*
G04 Board_Origin=9950000|10100000*
%FSLAX44Y44*%
%MOMM*%
G71*
G04*
G04 #@! TF.SameCoordinates,95A59B46-6245-4F61-991B-DFF7F89169E8*
G04*
G04*
G04 #@! TF.FilePolarity,Positive*
G04*
G01*
G75*
%ADD10C,0.2500*%
%ADD32C,1.6000*%
%ADD33C,1.2000*%
%ADD34C,1.5700*%
%ADD35C,1.5500*%
G04:AMPARAMS|DCode=36|XSize=1.6mm|YSize=1.6mm|CornerRadius=0.4mm|HoleSize=0mm|Usage=FLASHONLY|Rotation=0.000|XOffset=0mm|YOffset=0mm|HoleType=Round|Shape=RoundedRectangle|*
%AMROUNDEDRECTD36*
21,1,1.6000,0.8000,0,0,0.0*
21,1,0.8000,1.6000,0,0,0.0*
1,1,0.8000,0.4000,-0.4000*
1,1,0.8000,-0.4000,-0.4000*
1,1,0.8000,-0.4000,0.4000*
1,1,0.8000,0.4000,0.4000*
%
%ADD36ROUNDEDRECTD36*%
%ADD37R,1.2000X1.2000*%
%ADD38R,1.5500X1.5500*%
%ADD39C,1.5240*%
%ADD40C,1.2700*%
%ADD41C,0.6000*%
G36*
X701040Y0D02*
X0D01*
Y500380D01*
X701040D01*
Y0D01*
D02*
G37*
%LPC*%
G36*
X662176Y479042D02*
X658624D01*
X655140Y478349D01*
X651859Y476990D01*
X648905Y475016D01*
X646394Y472505D01*
X644420Y469551D01*
X643061Y466270D01*
X642368Y462786D01*
Y459234D01*
X643061Y455750D01*
X644420Y452469D01*
X646394Y449515D01*
X648905Y447004D01*
X651859Y445030D01*
X655140Y443671D01*
X658624Y442978D01*
X662176D01*
X665660Y443671D01*
X668941Y445030D01*
X671895Y447004D01*
X674406Y449515D01*
X676380Y452469D01*
X677739Y455750D01*
X678432Y459234D01*
Y462786D01*
X677739Y466270D01*
X676380Y469551D01*
X674406Y472505D01*
X671895Y475016D01*
X668941Y476990D01*
X665660Y478349D01*
X662176Y479042D01*
D02*
G37*
G36*
X42416D02*
X38864D01*
X35380Y478349D01*
X32099Y476990D01*
X29145Y475016D01*
X26634Y472505D01*
X24660Y469551D01*
X23301Y466270D01*
X22608Y462786D01*
Y459234D01*
X23301Y455750D01*
X24660Y452469D01*
X26634Y449515D01*
X29145Y447004D01*
X32099Y445030D01*
X35380Y443671D01*
X38864Y442978D01*
X42416D01*
X45900Y443671D01*
X49181Y445030D01*
X52135Y447004D01*
X54646Y449515D01*
X56620Y452469D01*
X57979Y455750D01*
X58672Y459234D01*
Y462786D01*
X57979Y466270D01*
X56620Y469551D01*
X54646Y472505D01*
X52135Y475016D01*
X49181Y476990D01*
X45900Y478349D01*
X42416Y479042D01*
D02*
G37*
G36*
X446874Y427482D02*
X444666D01*
X442535Y426911D01*
X440623Y425807D01*
X439063Y424247D01*
X437959Y422335D01*
X437388Y420204D01*
Y417996D01*
X437959Y415865D01*
X439063Y413953D01*
X440623Y412393D01*
X442535Y411289D01*
X444666Y410718D01*
X446874D01*
X449005Y411289D01*
X450917Y412393D01*
X452477Y413953D01*
X453581Y415865D01*
X454152Y417996D01*
Y420204D01*
X453581Y422335D01*
X452477Y424247D01*
X450917Y425807D01*
X449005Y426911D01*
X446874Y427482D01*
D02*
G37*
G36*
X272883Y410972D02*
X270676D01*
X268545Y410401D01*
X266633Y409297D01*
X265073Y407737D01*
X263969Y405825D01*
X263398Y403694D01*
Y401487D01*
X263969Y399355D01*
X265073Y397443D01*
X266633Y395883D01*
X268545Y394779D01*
X270676Y394208D01*
X272883D01*
X275015Y394779D01*
X276927Y395883D01*
X278487Y397443D01*
X279591Y399355D01*
X280162Y401487D01*
Y403694D01*
X279591Y405825D01*
X278487Y407737D01*
X276927Y409297D01*
X275015Y410401D01*
X272883Y410972D01*
D02*
G37*
G36*
X617220Y398753D02*
Y391160D01*
X624813D01*
X624234Y393321D01*
X623064Y395349D01*
X621409Y397004D01*
X619381Y398174D01*
X617220Y398753D01*
D02*
G37*
G36*
X614680D02*
X612519Y398174D01*
X610491Y397004D01*
X608836Y395349D01*
X607666Y393321D01*
X607087Y391160D01*
X614680D01*
Y398753D01*
D02*
G37*
G36*
X52260Y397946D02*
X49530D01*
Y388620D01*
X58856D01*
Y391350D01*
X58632Y393057D01*
X57973Y394648D01*
X56924Y396014D01*
X55558Y397063D01*
X53967Y397722D01*
X52260Y397946D01*
D02*
G37*
G36*
X46990D02*
X44260D01*
X42553Y397722D01*
X40962Y397063D01*
X39596Y396014D01*
X38547Y394648D01*
X37888Y393057D01*
X37664Y391350D01*
Y388620D01*
X46990D01*
Y397946D01*
D02*
G37*
G36*
X624813Y388620D02*
X617220D01*
Y381027D01*
X619381Y381606D01*
X621409Y382776D01*
X623064Y384431D01*
X624234Y386459D01*
X624813Y388620D01*
D02*
G37*
G36*
X614680D02*
X607087D01*
X607666Y386459D01*
X608836Y384431D01*
X610491Y382776D01*
X612519Y381606D01*
X614680Y381027D01*
Y388620D01*
D02*
G37*
G36*
X110744Y404412D02*
X96774D01*
X95493Y404158D01*
X94408Y403432D01*
X85264Y394288D01*
X84538Y393203D01*
X84445Y392734D01*
X82337Y392385D01*
X81688Y393510D01*
X79820Y395378D01*
X77532Y396698D01*
X74981Y397382D01*
X72339D01*
X69788Y396698D01*
X67500Y395378D01*
X65632Y393510D01*
X64312Y391222D01*
X63628Y388671D01*
Y386029D01*
X64312Y383478D01*
X65632Y381190D01*
X67500Y379322D01*
X69788Y378002D01*
X72339Y377318D01*
X74981D01*
X77532Y378002D01*
X79820Y379322D01*
X81688Y381190D01*
X82284Y382223D01*
X84284Y381687D01*
Y379984D01*
X84538Y378703D01*
X85264Y377618D01*
X124888Y337994D01*
X125973Y337268D01*
X127254Y337014D01*
X641350D01*
X642631Y337268D01*
X643716Y337994D01*
X653516Y347794D01*
X653988Y347522D01*
X656539Y346838D01*
X659181D01*
X661732Y347522D01*
X664020Y348842D01*
X665888Y350710D01*
X667208Y352998D01*
X667892Y355549D01*
Y358191D01*
X667208Y360742D01*
X665888Y363030D01*
X664020Y364898D01*
X661732Y366218D01*
X659181Y366902D01*
X656539D01*
X653988Y366218D01*
X651700Y364898D01*
X649832Y363030D01*
X648512Y360742D01*
X647828Y358191D01*
Y355549D01*
X648512Y352998D01*
X648784Y352526D01*
X639964Y343706D01*
X626642D01*
X625876Y345554D01*
X628116Y347794D01*
X628588Y347522D01*
X631139Y346838D01*
X633781D01*
X636332Y347522D01*
X638620Y348842D01*
X640488Y350710D01*
X641808Y352998D01*
X642492Y355549D01*
Y358191D01*
X641808Y360742D01*
X640488Y363030D01*
X638620Y364898D01*
X636332Y366218D01*
X633781Y366902D01*
X631139D01*
X628588Y366218D01*
X626300Y364898D01*
X624432Y363030D01*
X623112Y360742D01*
X622428Y358191D01*
Y355549D01*
X623112Y352998D01*
X623384Y352526D01*
X619136Y348278D01*
X616203D01*
X615374Y350278D01*
X615494Y350398D01*
X616882Y352802D01*
X617600Y355482D01*
Y355600D01*
X596520D01*
Y355482D01*
X597238Y352802D01*
X598626Y350398D01*
X598746Y350278D01*
X597918Y348278D01*
X592252D01*
X591183Y350278D01*
X591342Y350516D01*
X591810Y352870D01*
Y360870D01*
X591342Y363224D01*
X590009Y365219D01*
X588014Y366552D01*
X585660Y367020D01*
X577660D01*
X575306Y366552D01*
X573311Y365219D01*
X571978Y363224D01*
X571510Y360870D01*
Y352870D01*
X571978Y350516D01*
X572137Y350278D01*
X571068Y348278D01*
X142864D01*
X108136Y383006D01*
X108408Y383478D01*
X109092Y386029D01*
Y388671D01*
X108408Y391222D01*
X107088Y393510D01*
X105220Y395378D01*
X104627Y395720D01*
X105163Y397720D01*
X109358D01*
X115384Y391694D01*
X115112Y391222D01*
X114428Y388671D01*
Y386029D01*
X115112Y383478D01*
X116432Y381190D01*
X118300Y379322D01*
X120588Y378002D01*
X123139Y377318D01*
X125781D01*
X128332Y378002D01*
X130620Y379322D01*
X132488Y381190D01*
X133808Y383478D01*
X134492Y386029D01*
Y388671D01*
X133808Y391222D01*
X132488Y393510D01*
X130620Y395378D01*
X128332Y396698D01*
X125781Y397382D01*
X123139D01*
X120588Y396698D01*
X120116Y396426D01*
X113110Y403432D01*
X112025Y404158D01*
X110744Y404412D01*
D02*
G37*
G36*
X58856Y386080D02*
X49530D01*
Y376754D01*
X52260D01*
X53967Y376978D01*
X55558Y377637D01*
X56924Y378686D01*
X57973Y380052D01*
X58632Y381643D01*
X58856Y383350D01*
Y386080D01*
D02*
G37*
G36*
X46990D02*
X37664D01*
Y383350D01*
X37888Y381643D01*
X38547Y380052D01*
X39596Y378686D01*
X40962Y377637D01*
X42553Y376978D01*
X44260Y376754D01*
X46990D01*
Y386080D01*
D02*
G37*
G36*
X562444Y388112D02*
X560237D01*
X558105Y387541D01*
X556193Y386437D01*
X554633Y384877D01*
X553529Y382965D01*
X552958Y380834D01*
Y378627D01*
X553529Y376495D01*
X554633Y374583D01*
X556193Y373023D01*
X558105Y371919D01*
X560237Y371348D01*
X562444D01*
X564575Y371919D01*
X566487Y373023D01*
X568047Y374583D01*
X569151Y376495D01*
X569722Y378627D01*
Y380834D01*
X569151Y382965D01*
X568047Y384877D01*
X566487Y386437D01*
X564575Y387541D01*
X562444Y388112D01*
D02*
G37*
G36*
X448310Y374623D02*
Y367030D01*
X455903D01*
X455324Y369191D01*
X454154Y371219D01*
X452499Y372874D01*
X450471Y374044D01*
X448310Y374623D01*
D02*
G37*
G36*
X445770D02*
X443609Y374044D01*
X441581Y372874D01*
X439926Y371219D01*
X438756Y369191D01*
X438177Y367030D01*
X445770D01*
Y374623D01*
D02*
G37*
G36*
X608448Y367410D02*
X608330D01*
Y358140D01*
X617600D01*
Y358258D01*
X616882Y360938D01*
X615494Y363342D01*
X613532Y365304D01*
X611128Y366692D01*
X608448Y367410D01*
D02*
G37*
G36*
X605790D02*
X605672D01*
X602992Y366692D01*
X600588Y365304D01*
X598626Y363342D01*
X597238Y360938D01*
X596520Y358258D01*
Y358140D01*
X605790D01*
Y367410D01*
D02*
G37*
G36*
X455903Y364490D02*
X448310D01*
Y356897D01*
X450471Y357476D01*
X452499Y358646D01*
X454154Y360301D01*
X455324Y362329D01*
X455903Y364490D01*
D02*
G37*
G36*
X445770D02*
X438177D01*
X438756Y362329D01*
X439926Y360301D01*
X441581Y358646D01*
X443609Y357476D01*
X445770Y356897D01*
Y364490D01*
D02*
G37*
G36*
X87464Y362712D02*
X85257D01*
X83125Y362141D01*
X81213Y361037D01*
X79653Y359477D01*
X78549Y357565D01*
X77978Y355434D01*
Y353227D01*
X78549Y351095D01*
X79653Y349183D01*
X81213Y347623D01*
X83125Y346519D01*
X85257Y345948D01*
X87464D01*
X89595Y346519D01*
X91507Y347623D01*
X93067Y349183D01*
X94171Y351095D01*
X94742Y353227D01*
Y355434D01*
X94171Y357565D01*
X93067Y359477D01*
X91507Y361037D01*
X89595Y362141D01*
X87464Y362712D01*
D02*
G37*
G36*
X67310Y341603D02*
Y334010D01*
X74903D01*
X74324Y336171D01*
X73154Y338199D01*
X71499Y339854D01*
X69471Y341024D01*
X67310Y341603D01*
D02*
G37*
G36*
X64770D02*
X62609Y341024D01*
X60581Y339854D01*
X58926Y338199D01*
X57756Y336171D01*
X57177Y334010D01*
X64770D01*
Y341603D01*
D02*
G37*
G36*
X74903Y331470D02*
X67310D01*
Y323877D01*
X69471Y324456D01*
X71499Y325626D01*
X73154Y327281D01*
X74324Y329309D01*
X74903Y331470D01*
D02*
G37*
G36*
X64770D02*
X57177D01*
X57756Y329309D01*
X58926Y327281D01*
X60581Y325626D01*
X62609Y324456D01*
X64770Y323877D01*
Y331470D01*
D02*
G37*
G36*
X214630Y295883D02*
Y288290D01*
X222223D01*
X221644Y290451D01*
X220474Y292479D01*
X218819Y294134D01*
X216791Y295304D01*
X214630Y295883D01*
D02*
G37*
G36*
X212090D02*
X209929Y295304D01*
X207901Y294134D01*
X206246Y292479D01*
X205076Y290451D01*
X204497Y288290D01*
X212090D01*
Y295883D01*
D02*
G37*
G36*
X75048Y289940D02*
X74930D01*
Y280670D01*
X84200D01*
Y280788D01*
X83482Y283468D01*
X82094Y285872D01*
X80132Y287834D01*
X77728Y289222D01*
X75048Y289940D01*
D02*
G37*
G36*
X72390D02*
X72272D01*
X69592Y289222D01*
X67188Y287834D01*
X65226Y285872D01*
X63838Y283468D01*
X63120Y280788D01*
Y280670D01*
X72390D01*
Y289940D01*
D02*
G37*
G36*
X222223Y285750D02*
X214630D01*
Y278157D01*
X216791Y278736D01*
X218819Y279906D01*
X220474Y281561D01*
X221644Y283589D01*
X222223Y285750D01*
D02*
G37*
G36*
X212090D02*
X204497D01*
X205076Y283589D01*
X206246Y281561D01*
X207901Y279906D01*
X209929Y278736D01*
X212090Y278157D01*
Y285750D01*
D02*
G37*
G36*
X100381Y289432D02*
X97739D01*
X95188Y288748D01*
X92900Y287428D01*
X91032Y285560D01*
X89712Y283272D01*
X89028Y280721D01*
Y278079D01*
X89712Y275528D01*
X91032Y273240D01*
X92900Y271372D01*
X95188Y270052D01*
X97739Y269368D01*
X100381D01*
X102932Y270052D01*
X105220Y271372D01*
X107088Y273240D01*
X108408Y275528D01*
X109092Y278079D01*
Y280721D01*
X108408Y283272D01*
X107088Y285560D01*
X105220Y287428D01*
X102932Y288748D01*
X100381Y289432D01*
D02*
G37*
G36*
X52260Y289550D02*
X44260D01*
X41906Y289082D01*
X39911Y287749D01*
X38578Y285754D01*
X38110Y283400D01*
Y275400D01*
X38578Y273046D01*
X39911Y271051D01*
X41906Y269718D01*
X44260Y269250D01*
X52260D01*
X54614Y269718D01*
X56609Y271051D01*
X57942Y273046D01*
X58410Y275400D01*
Y283400D01*
X57942Y285754D01*
X56609Y287749D01*
X54614Y289082D01*
X52260Y289550D01*
D02*
G37*
G36*
X84200Y278130D02*
X74930D01*
Y268860D01*
X75048D01*
X77728Y269578D01*
X80132Y270966D01*
X82094Y272928D01*
X83482Y275332D01*
X84200Y278012D01*
Y278130D01*
D02*
G37*
G36*
X72390D02*
X63120D01*
Y278012D01*
X63838Y275332D01*
X65226Y272928D01*
X67188Y270966D01*
X69592Y269578D01*
X72272Y268860D01*
X72390D01*
Y278130D01*
D02*
G37*
G36*
X547203Y281432D02*
X544996D01*
X542865Y280861D01*
X540953Y279757D01*
X539393Y278197D01*
X538289Y276285D01*
X537718Y274153D01*
Y271947D01*
X538289Y269815D01*
X539393Y267903D01*
X540953Y266343D01*
X542865Y265239D01*
X544996Y264668D01*
X547203D01*
X549335Y265239D01*
X551247Y266343D01*
X552807Y267903D01*
X553911Y269815D01*
X554482Y271947D01*
Y274153D01*
X553911Y276285D01*
X552807Y278197D01*
X551247Y279757D01*
X549335Y280861D01*
X547203Y281432D01*
D02*
G37*
G36*
X636288Y238382D02*
X633712D01*
X631224Y237715D01*
X628994Y236427D01*
X627173Y234606D01*
X625885Y232376D01*
X625218Y229888D01*
Y227312D01*
X625885Y224824D01*
X627173Y222594D01*
X628994Y220772D01*
X631224Y219485D01*
X633712Y218818D01*
X636288D01*
X638776Y219485D01*
X641006Y220772D01*
X642828Y222594D01*
X644115Y224824D01*
X644782Y227312D01*
Y229888D01*
X644115Y232376D01*
X642828Y234606D01*
X641006Y236427D01*
X638776Y237715D01*
X636288Y238382D01*
D02*
G37*
G36*
X610888D02*
X608312D01*
X605824Y237715D01*
X603594Y236427D01*
X601772Y234606D01*
X600485Y232376D01*
X599818Y229888D01*
Y227312D01*
X600485Y224824D01*
X600707Y224439D01*
X592466Y216198D01*
X69342D01*
X68061Y215944D01*
X66976Y215218D01*
X54713Y202955D01*
X53530Y203190D01*
X45530D01*
X43176Y202722D01*
X41181Y201389D01*
X39848Y199394D01*
X39380Y197040D01*
Y189040D01*
X39848Y186686D01*
X41181Y184691D01*
X43176Y183358D01*
X45530Y182890D01*
X53530D01*
X55884Y183358D01*
X57879Y184691D01*
X59212Y186686D01*
X59680Y189040D01*
Y197040D01*
X59445Y198223D01*
X70728Y209506D01*
X593852D01*
X595133Y209760D01*
X596218Y210486D01*
X605439Y219707D01*
X605824Y219485D01*
X608312Y218818D01*
X610888D01*
X613376Y219485D01*
X615606Y220772D01*
X617427Y222594D01*
X618715Y224824D01*
X619382Y227312D01*
Y229888D01*
X618715Y232376D01*
X617427Y234606D01*
X615606Y236427D01*
X613376Y237715D01*
X610888Y238382D01*
D02*
G37*
G36*
X585488D02*
X582912D01*
X580424Y237715D01*
X578194Y236427D01*
X576372Y234606D01*
X575085Y232376D01*
X574418Y229888D01*
Y227312D01*
X575085Y224824D01*
X576372Y222594D01*
X578194Y220772D01*
X580424Y219485D01*
X582912Y218818D01*
X585488D01*
X587976Y219485D01*
X590206Y220772D01*
X592028Y222594D01*
X593315Y224824D01*
X593982Y227312D01*
Y229888D01*
X593315Y232376D01*
X592028Y234606D01*
X590206Y236427D01*
X587976Y237715D01*
X585488Y238382D01*
D02*
G37*
G36*
X560088D02*
X557512D01*
X555024Y237715D01*
X552794Y236427D01*
X550973Y234606D01*
X549685Y232376D01*
X549018Y229888D01*
Y227312D01*
X549685Y224824D01*
X550973Y222594D01*
X552794Y220772D01*
X555024Y219485D01*
X557512Y218818D01*
X560088D01*
X562576Y219485D01*
X564806Y220772D01*
X566628Y222594D01*
X567915Y224824D01*
X568582Y227312D01*
Y229888D01*
X567915Y232376D01*
X566628Y234606D01*
X564806Y236427D01*
X562576Y237715D01*
X560088Y238382D01*
D02*
G37*
G36*
X534688D02*
X532112D01*
X529624Y237715D01*
X527394Y236427D01*
X525573Y234606D01*
X524285Y232376D01*
X523618Y229888D01*
Y227312D01*
X524285Y224824D01*
X525573Y222594D01*
X527394Y220772D01*
X529624Y219485D01*
X532112Y218818D01*
X534688D01*
X537176Y219485D01*
X539406Y220772D01*
X541227Y222594D01*
X542515Y224824D01*
X543182Y227312D01*
Y229888D01*
X542515Y232376D01*
X541227Y234606D01*
X539406Y236427D01*
X537176Y237715D01*
X534688Y238382D01*
D02*
G37*
G36*
X125781Y289432D02*
X123139D01*
X120588Y288748D01*
X118300Y287428D01*
X116432Y285560D01*
X115112Y283272D01*
X114428Y280721D01*
Y278079D01*
X115112Y275528D01*
X116432Y273240D01*
X118300Y271372D01*
X120588Y270052D01*
X123139Y269368D01*
X125781D01*
X128332Y270052D01*
X128804Y270324D01*
X172894Y226234D01*
X173979Y225508D01*
X175260Y225254D01*
X498770D01*
X498885Y224824D01*
X500173Y222594D01*
X501994Y220772D01*
X504224Y219485D01*
X506712Y218818D01*
X509288D01*
X511776Y219485D01*
X514006Y220772D01*
X515827Y222594D01*
X517115Y224824D01*
X517782Y227312D01*
Y229888D01*
X517115Y232376D01*
X515827Y234606D01*
X514006Y236427D01*
X511776Y237715D01*
X509288Y238382D01*
X506712D01*
X504224Y237715D01*
X501994Y236427D01*
X500173Y234606D01*
X498885Y232376D01*
X498770Y231946D01*
X176646D01*
X133536Y275056D01*
X133808Y275528D01*
X134492Y278079D01*
Y280721D01*
X133808Y283272D01*
X132488Y285560D01*
X130620Y287428D01*
X128332Y288748D01*
X125781Y289432D01*
D02*
G37*
G36*
X101718Y203580D02*
X101600D01*
Y194310D01*
X110870D01*
Y194428D01*
X110152Y197108D01*
X108764Y199512D01*
X106802Y201474D01*
X104398Y202862D01*
X101718Y203580D01*
D02*
G37*
G36*
X99060D02*
X98942D01*
X96262Y202862D01*
X93858Y201474D01*
X91896Y199512D01*
X90508Y197108D01*
X89790Y194428D01*
Y194310D01*
X99060D01*
Y203580D01*
D02*
G37*
G36*
X670182Y238382D02*
X650618D01*
Y223550D01*
X626502Y199434D01*
X340614D01*
X339333Y199180D01*
X338248Y198454D01*
X300528Y160734D01*
X299227D01*
X297378Y159968D01*
X295962Y158552D01*
X295196Y156703D01*
Y154701D01*
X295962Y152852D01*
X297378Y151436D01*
X299227Y150670D01*
X301229D01*
X303078Y151436D01*
X304494Y152852D01*
X305260Y154701D01*
Y156002D01*
X342000Y192742D01*
X347885D01*
X348714Y190742D01*
X348396Y190424D01*
X347272Y188477D01*
X346729Y186450D01*
X355230D01*
Y185180D01*
D01*
Y186450D01*
X363731D01*
X363188Y188477D01*
X362063Y190424D01*
X361745Y190742D01*
X362574Y192742D01*
X627888D01*
X629169Y192996D01*
X630254Y193722D01*
X655350Y218818D01*
X670182D01*
Y238382D01*
D02*
G37*
G36*
X76251Y203072D02*
X73609D01*
X71058Y202388D01*
X68770Y201068D01*
X66902Y199200D01*
X65582Y196912D01*
X64898Y194361D01*
Y191719D01*
X65582Y189168D01*
X66902Y186880D01*
X68770Y185012D01*
X71058Y183692D01*
X73609Y183008D01*
X76251D01*
X78802Y183692D01*
X81090Y185012D01*
X82958Y186880D01*
X84278Y189168D01*
X84962Y191719D01*
Y194361D01*
X84278Y196912D01*
X82958Y199200D01*
X81090Y201068D01*
X78802Y202388D01*
X76251Y203072D01*
D02*
G37*
G36*
X110870Y191770D02*
X101600D01*
Y182500D01*
X101718D01*
X104398Y183218D01*
X106802Y184606D01*
X108764Y186568D01*
X110152Y188972D01*
X110870Y191652D01*
Y191770D01*
D02*
G37*
G36*
X99060D02*
X89790D01*
Y191652D01*
X90508Y188972D01*
X91896Y186568D01*
X93858Y184606D01*
X96262Y183218D01*
X98942Y182500D01*
X99060D01*
Y191770D01*
D02*
G37*
G36*
X363731Y183910D02*
X356500D01*
Y176679D01*
X358526Y177222D01*
X360473Y178347D01*
X362063Y179937D01*
X363188Y181884D01*
X363731Y183910D01*
D02*
G37*
G36*
X353960D02*
X346729D01*
X347272Y181884D01*
X348396Y179937D01*
X349986Y178347D01*
X351933Y177222D01*
X353960Y176679D01*
Y183910D01*
D02*
G37*
G36*
X536038Y184380D02*
X535940D01*
Y175260D01*
X545060D01*
Y175358D01*
X544352Y178000D01*
X542984Y180370D01*
X541050Y182304D01*
X538680Y183672D01*
X536038Y184380D01*
D02*
G37*
G36*
X545060Y172720D02*
X535940D01*
Y163600D01*
X536038D01*
X538680Y164308D01*
X541050Y165676D01*
X542984Y167610D01*
X544352Y169980D01*
X545060Y172622D01*
Y172720D01*
D02*
G37*
G36*
X523240Y188762D02*
X443230D01*
X442437Y188604D01*
X441765Y188155D01*
X441316Y187483D01*
X441158Y186690D01*
Y86360D01*
X441316Y85567D01*
X441765Y84895D01*
X442437Y84446D01*
X443230Y84288D01*
X499426D01*
X500254Y82288D01*
X500173Y82206D01*
X498885Y79976D01*
X498218Y77488D01*
Y74912D01*
X498885Y72424D01*
X500173Y70194D01*
X501994Y68373D01*
X504224Y67085D01*
X506712Y66418D01*
X509288D01*
X511776Y67085D01*
X514006Y68373D01*
X515827Y70194D01*
X517115Y72424D01*
X517782Y74912D01*
Y77488D01*
X517115Y79976D01*
X515827Y82206D01*
X515746Y82288D01*
X516574Y84288D01*
X523240D01*
X524033Y84446D01*
X524705Y84895D01*
X525154Y85567D01*
X525312Y86360D01*
Y128496D01*
X527312Y129273D01*
X528602Y127982D01*
X530856Y126681D01*
X533369Y126008D01*
X535971D01*
X538484Y126681D01*
X540738Y127982D01*
X542578Y129822D01*
X543879Y132076D01*
X544552Y134589D01*
Y137191D01*
X543879Y139704D01*
X542578Y141958D01*
X540738Y143798D01*
X538484Y145098D01*
X535971Y145772D01*
X533369D01*
X530856Y145098D01*
X528602Y143798D01*
X527312Y142507D01*
X525312Y143284D01*
Y165826D01*
X527312Y166654D01*
X528290Y165676D01*
X530660Y164308D01*
X533302Y163600D01*
X533400D01*
Y173990D01*
Y184380D01*
X533302D01*
X530660Y183672D01*
X528290Y182304D01*
X527312Y181325D01*
X525312Y182154D01*
Y186690D01*
X525154Y187483D01*
X524705Y188155D01*
X524033Y188604D01*
X523240Y188762D01*
D02*
G37*
G36*
X363262Y173212D02*
X347198D01*
Y157148D01*
X363262D01*
Y173212D01*
D02*
G37*
G36*
X77304Y173482D02*
X75097D01*
X72965Y172911D01*
X71053Y171807D01*
X69493Y170247D01*
X68389Y168335D01*
X67818Y166203D01*
Y163997D01*
X68389Y161865D01*
X69493Y159953D01*
X71053Y158393D01*
X72965Y157289D01*
X75097Y156718D01*
X77304D01*
X79435Y157289D01*
X81347Y158393D01*
X82907Y159953D01*
X84011Y161865D01*
X84582Y163997D01*
Y166203D01*
X84011Y168335D01*
X82907Y170247D01*
X81347Y171807D01*
X79435Y172911D01*
X77304Y173482D01*
D02*
G37*
G36*
X99060Y163803D02*
Y156210D01*
X106653D01*
X106074Y158371D01*
X104904Y160399D01*
X103249Y162054D01*
X101221Y163224D01*
X99060Y163803D01*
D02*
G37*
G36*
X96520D02*
X94359Y163224D01*
X92331Y162054D01*
X90676Y160399D01*
X89506Y158371D01*
X88927Y156210D01*
X96520D01*
Y163803D01*
D02*
G37*
G36*
X590550Y161263D02*
Y153670D01*
X598143D01*
X597564Y155831D01*
X596394Y157859D01*
X594739Y159514D01*
X592711Y160684D01*
X590550Y161263D01*
D02*
G37*
G36*
X588010D02*
X585849Y160684D01*
X583821Y159514D01*
X582166Y157859D01*
X580996Y155831D01*
X580417Y153670D01*
X588010D01*
Y161263D01*
D02*
G37*
G36*
X276693Y168402D02*
X274487D01*
X272355Y167831D01*
X270443Y166727D01*
X268883Y165167D01*
X267779Y163255D01*
X267208Y161124D01*
Y158917D01*
X267779Y156785D01*
X268883Y154873D01*
X270443Y153313D01*
X272355Y152209D01*
X274487Y151638D01*
X276693D01*
X278825Y152209D01*
X280737Y153313D01*
X282297Y154873D01*
X283401Y156785D01*
X283972Y158917D01*
Y161124D01*
X283401Y163255D01*
X282297Y165167D01*
X280737Y166727D01*
X278825Y167831D01*
X276693Y168402D01*
D02*
G37*
G36*
X106653Y153670D02*
X99060D01*
Y146077D01*
X101221Y146656D01*
X103249Y147826D01*
X104904Y149481D01*
X106074Y151509D01*
X106653Y153670D01*
D02*
G37*
G36*
X96520D02*
X88927D01*
X89506Y151509D01*
X90676Y149481D01*
X92331Y147826D01*
X94359Y146656D01*
X96520Y146077D01*
Y153670D01*
D02*
G37*
G36*
X598143Y151130D02*
X590550D01*
Y143537D01*
X592711Y144116D01*
X594739Y145286D01*
X596394Y146941D01*
X597564Y148969D01*
X598143Y151130D01*
D02*
G37*
G36*
X588010D02*
X580417D01*
X580996Y148969D01*
X582166Y146941D01*
X583821Y145286D01*
X585849Y144116D01*
X588010Y143537D01*
Y151130D01*
D02*
G37*
G36*
X311150Y114273D02*
Y106680D01*
X318743D01*
X318164Y108841D01*
X316994Y110869D01*
X315339Y112524D01*
X313311Y113694D01*
X311150Y114273D01*
D02*
G37*
G36*
X308610D02*
X306449Y113694D01*
X304421Y112524D01*
X302766Y110869D01*
X301596Y108841D01*
X301017Y106680D01*
X308610D01*
Y114273D01*
D02*
G37*
G36*
X318743Y104140D02*
X311150D01*
Y96547D01*
X313311Y97126D01*
X315339Y98296D01*
X316994Y99951D01*
X318164Y101979D01*
X318743Y104140D01*
D02*
G37*
G36*
X308610D02*
X301017D01*
X301596Y101979D01*
X302766Y99951D01*
X304421Y98296D01*
X306449Y97126D01*
X308610Y96547D01*
Y104140D01*
D02*
G37*
G36*
X636355Y86490D02*
X636270D01*
Y77470D01*
X645290D01*
Y77555D01*
X644589Y80172D01*
X643234Y82518D01*
X641318Y84434D01*
X638972Y85789D01*
X636355Y86490D01*
D02*
G37*
G36*
X633730D02*
X633645D01*
X631028Y85789D01*
X628682Y84434D01*
X626766Y82518D01*
X625411Y80172D01*
X624710Y77555D01*
Y77470D01*
X633730D01*
Y86490D01*
D02*
G37*
G36*
X670182Y85982D02*
X650618D01*
Y66418D01*
X670182D01*
Y85982D01*
D02*
G37*
G36*
X610888D02*
X608312D01*
X605824Y85315D01*
X603594Y84028D01*
X601772Y82206D01*
X600485Y79976D01*
X599818Y77488D01*
Y74912D01*
X600485Y72424D01*
X601772Y70194D01*
X603594Y68373D01*
X605824Y67085D01*
X608312Y66418D01*
X610888D01*
X613376Y67085D01*
X615606Y68373D01*
X617427Y70194D01*
X618715Y72424D01*
X619382Y74912D01*
Y77488D01*
X618715Y79976D01*
X617427Y82206D01*
X615606Y84028D01*
X613376Y85315D01*
X610888Y85982D01*
D02*
G37*
G36*
X585488D02*
X582912D01*
X580424Y85315D01*
X578194Y84028D01*
X576372Y82206D01*
X575085Y79976D01*
X574418Y77488D01*
Y74912D01*
X575085Y72424D01*
X576372Y70194D01*
X578194Y68373D01*
X580424Y67085D01*
X582912Y66418D01*
X585488D01*
X587976Y67085D01*
X590206Y68373D01*
X592028Y70194D01*
X593315Y72424D01*
X593982Y74912D01*
Y77488D01*
X593315Y79976D01*
X592028Y82206D01*
X590206Y84028D01*
X587976Y85315D01*
X585488Y85982D01*
D02*
G37*
G36*
X560088D02*
X557512D01*
X555024Y85315D01*
X552794Y84028D01*
X550973Y82206D01*
X549685Y79976D01*
X549018Y77488D01*
Y74912D01*
X549685Y72424D01*
X550973Y70194D01*
X552794Y68373D01*
X555024Y67085D01*
X557512Y66418D01*
X560088D01*
X562576Y67085D01*
X564806Y68373D01*
X566628Y70194D01*
X567915Y72424D01*
X568582Y74912D01*
Y77488D01*
X567915Y79976D01*
X566628Y82206D01*
X564806Y84028D01*
X562576Y85315D01*
X560088Y85982D01*
D02*
G37*
G36*
X534688D02*
X532112D01*
X529624Y85315D01*
X527394Y84028D01*
X525573Y82206D01*
X524285Y79976D01*
X523618Y77488D01*
Y74912D01*
X524285Y72424D01*
X525573Y70194D01*
X527394Y68373D01*
X529624Y67085D01*
X532112Y66418D01*
X534688D01*
X537176Y67085D01*
X539406Y68373D01*
X541227Y70194D01*
X542515Y72424D01*
X543182Y74912D01*
Y77488D01*
X542515Y79976D01*
X541227Y82206D01*
X539406Y84028D01*
X537176Y85315D01*
X534688Y85982D01*
D02*
G37*
G36*
X645290Y74930D02*
X636270D01*
Y65910D01*
X636355D01*
X638972Y66611D01*
X641318Y67966D01*
X643234Y69882D01*
X644589Y72228D01*
X645290Y74845D01*
Y74930D01*
D02*
G37*
G36*
X633730D02*
X624710D01*
Y74845D01*
X625411Y72228D01*
X626766Y69882D01*
X628682Y67966D01*
X631028Y66611D01*
X633645Y65910D01*
X633730D01*
Y74930D01*
D02*
G37*
G36*
X299451Y54562D02*
X297449D01*
X295600Y53796D01*
X294184Y52380D01*
X293418Y50531D01*
Y48529D01*
X294184Y46680D01*
X295600Y45264D01*
X297449Y44498D01*
X299451D01*
X301300Y45264D01*
X302716Y46680D01*
X303482Y48529D01*
Y50531D01*
X302716Y52380D01*
X301300Y53796D01*
X299451Y54562D01*
D02*
G37*
G36*
X265430Y46963D02*
X263269Y46384D01*
X261241Y45214D01*
X259586Y43559D01*
X258416Y41531D01*
X257837Y39370D01*
X265430D01*
Y46963D01*
D02*
G37*
G36*
X267970D02*
Y38100D01*
Y29237D01*
X270131Y29816D01*
X272159Y30986D01*
X273814Y32641D01*
X274984Y34669D01*
X275453Y36417D01*
X277519Y36432D01*
X277939Y34865D01*
X279043Y32953D01*
X280603Y31393D01*
X282515Y30289D01*
X284646Y29718D01*
X286854D01*
X288985Y30289D01*
X290897Y31393D01*
X292457Y32953D01*
X293561Y34865D01*
X294132Y36997D01*
Y39204D01*
X293561Y41335D01*
X292457Y43247D01*
X290897Y44807D01*
X288985Y45911D01*
X286854Y46482D01*
X284646D01*
X282515Y45911D01*
X280603Y44807D01*
X279043Y43247D01*
X277939Y41335D01*
X277519Y39768D01*
X275453Y39783D01*
X274984Y41531D01*
X273814Y43559D01*
X272159Y45214D01*
X270131Y46384D01*
X267970Y46963D01*
D02*
G37*
G36*
X265430Y36830D02*
X257837D01*
X258416Y34669D01*
X259586Y32641D01*
X261241Y30986D01*
X263269Y29816D01*
X265430Y29237D01*
Y36830D01*
D02*
G37*
G36*
X247650Y84622D02*
X31750D01*
X30957Y84464D01*
X30285Y84015D01*
X29836Y83343D01*
X29678Y82550D01*
Y77470D01*
X29836Y76677D01*
X30285Y76005D01*
X30957Y75556D01*
X31750Y75398D01*
X239228D01*
Y26670D01*
X239386Y25877D01*
X239835Y25205D01*
X240507Y24756D01*
X241300Y24598D01*
X247650D01*
X248443Y24756D01*
X249115Y25205D01*
X249564Y25877D01*
X249722Y26670D01*
Y82550D01*
X249564Y83343D01*
X249115Y84015D01*
X248443Y84464D01*
X247650Y84622D01*
D02*
G37*
G36*
X662176Y58672D02*
X658624D01*
X655140Y57979D01*
X651859Y56620D01*
X648905Y54646D01*
X646394Y52135D01*
X644420Y49181D01*
X643061Y45900D01*
X642368Y42416D01*
Y38864D01*
X643061Y35380D01*
X644420Y32099D01*
X646394Y29145D01*
X648905Y26634D01*
X651859Y24660D01*
X655140Y23301D01*
X658624Y22608D01*
X662176D01*
X665660Y23301D01*
X668941Y24660D01*
X671895Y26634D01*
X674406Y29145D01*
X676380Y32099D01*
X677739Y35380D01*
X678432Y38864D01*
Y42416D01*
X677739Y45900D01*
X676380Y49181D01*
X674406Y52135D01*
X671895Y54646D01*
X668941Y56620D01*
X665660Y57979D01*
X662176Y58672D01*
D02*
G37*
G36*
X42416D02*
X38864D01*
X35380Y57979D01*
X32099Y56620D01*
X29145Y54646D01*
X26634Y52135D01*
X24660Y49181D01*
X23301Y45900D01*
X22608Y42416D01*
Y38864D01*
X23301Y35380D01*
X24660Y32099D01*
X26634Y29145D01*
X29145Y26634D01*
X32099Y24660D01*
X35380Y23301D01*
X38864Y22608D01*
X42416D01*
X45900Y23301D01*
X49181Y24660D01*
X52135Y26634D01*
X54646Y29145D01*
X56620Y32099D01*
X57979Y35380D01*
X58672Y38864D01*
Y42416D01*
X57979Y45900D01*
X56620Y49181D01*
X54646Y52135D01*
X52135Y54646D01*
X49181Y56620D01*
X45900Y57979D01*
X42416Y58672D01*
D02*
G37*
G36*
X608163Y26162D02*
X605956D01*
X603825Y25591D01*
X601913Y24487D01*
X600353Y22927D01*
X599249Y21015D01*
X598678Y18884D01*
Y16676D01*
X599249Y14545D01*
X600353Y12633D01*
X601913Y11073D01*
X603825Y9969D01*
X605956Y9398D01*
X608163D01*
X610295Y9969D01*
X612207Y11073D01*
X613767Y12633D01*
X614871Y14545D01*
X615442Y16676D01*
Y18884D01*
X614871Y21015D01*
X613767Y22927D01*
X612207Y24487D01*
X610295Y25591D01*
X608163Y26162D01*
D02*
G37*
%LPD*%
G36*
X136124Y345554D02*
X135358Y343706D01*
X128640D01*
X96864Y375482D01*
X97604Y377033D01*
X97857Y377318D01*
X100381D01*
X102932Y378002D01*
X103404Y378274D01*
X136124Y345554D01*
D02*
G37*
D10*
X620522Y344932D02*
X632460Y356870D01*
X141478Y344932D02*
X620522D01*
X99060Y387350D02*
X141478Y344932D01*
X641350Y340360D02*
X657860Y356870D01*
X127254Y340360D02*
X641350D01*
X96774Y401066D02*
X110744D01*
X124460Y387350D01*
X87630Y391922D02*
X96774Y401066D01*
X87630Y379984D02*
X127254Y340360D01*
X87630Y379984D02*
Y391922D01*
X49530Y193040D02*
X69342Y212852D01*
X593852D01*
X609600Y228600D01*
X124460Y279400D02*
X175260Y228600D01*
X508000D01*
X300228Y155702D02*
X340614Y196088D01*
X627888D01*
X660400Y228600D01*
D32*
X607060Y356870D02*
D03*
X73660Y279400D02*
D03*
X100330Y193040D02*
D03*
X632460Y356870D02*
D03*
X99060Y387350D02*
D03*
X657860Y356870D02*
D03*
X124460Y387350D02*
D03*
X73660D02*
D03*
X74930Y193040D02*
D03*
X99060Y279400D02*
D03*
X124460D02*
D03*
D33*
X355230Y185180D02*
D03*
D34*
X534670Y173990D02*
D03*
Y135890D02*
D03*
D35*
X635000Y76200D02*
D03*
X533400Y228600D02*
D03*
X558800D02*
D03*
X609600Y76200D02*
D03*
X584200D02*
D03*
X558800D02*
D03*
X533400D02*
D03*
X508000D02*
D03*
X635000Y228600D02*
D03*
X609600D02*
D03*
X584200D02*
D03*
X508000D02*
D03*
D36*
X48260Y387350D02*
D03*
X581660Y356870D02*
D03*
X48260Y279400D02*
D03*
X49530Y193040D02*
D03*
D37*
X355230Y165180D02*
D03*
D38*
X660400Y228600D02*
D03*
Y76200D02*
D03*
D39*
X40640Y461010D02*
D03*
X660400D02*
D03*
Y40640D02*
D03*
X40640D02*
D03*
D40*
X447040Y365760D02*
D03*
X445770Y419100D02*
D03*
X271780Y402590D02*
D03*
X615950Y389890D02*
D03*
X589280Y152400D02*
D03*
X213360Y287020D02*
D03*
X66040Y332740D02*
D03*
X309880Y105410D02*
D03*
X266700Y38100D02*
D03*
X97790Y154940D02*
D03*
X561340Y379730D02*
D03*
X607060Y17780D02*
D03*
X546100Y273050D02*
D03*
X86360Y354330D02*
D03*
X275590Y160020D02*
D03*
X285750Y38100D02*
D03*
X76200Y165100D02*
D03*
D41*
X298450Y49530D02*
D03*
X300228Y155702D02*
D03*
M02*
