M48
;Layer_Color=9474304
;FILE_FORMAT=4:4
METRIC,LZ
;TYPE=PLATED
T01F00S00C0.3000
T02F00S00C0.7000
T03F00S00C0.7112
T04F00S00C1.0200
T05F00S00C1.1000
;TYPE=NON_PLATED
T06F00S00C3.2000
%
T01
X0029845Y0004953
X00300228Y00155702
T02
X0035523Y0016518
Y0018518
T03
X002667Y000381
X0028575
X0030988Y0010541
X0060706Y0001778
X0058928Y001524
X005461Y0027305
X0056134Y0037973
X0061595Y0038989
X0044704Y0036576
X0044577Y004191
X0027178Y0040259
X0021336Y0028702
X0027559Y0016002
X0009779Y0015494
X000762Y001651
X0006604Y0033274
X0008636Y0035433
T04
X00508Y000762
X005334
X0053467Y0013589
X005588Y000762
X005842
X006096
X00635
X006604
Y002286
X00635
X006096
X005842
X005588
X005334
X00508
X0053467Y0017399
T05
X0058166Y0035687
X0060706
X0063246
X0065786
X0012446Y0038735
X0009906
X0007366
X0004826
Y002794
X0007366
X0009906
X0012446
X0010033Y0019304
X0007493
X0004953
T06
X0004064Y0004064
X006604
Y0046101
X0004064
M30
